<svg preserveAspectRatio="none" overflow="visible" style="display: block;" width="17.024" height="16.8" viewBox="0 0 17.024 16.8" fill="none" xmlns="http://www.w3.org/2000/svg">
<g id="user_2_fill">
<g id="Vector">
</g>
<path id="Vector_2" d="M11.3494 9.7999C12.2634 9.79995 13.142 10.1482 13.8021 10.772C14.4622 11.3957 14.8529 12.2469 14.8925 13.148L14.8961 13.2999V13.9999C14.8962 14.3531 14.761 14.6933 14.5177 14.9523C14.2743 15.2113 13.9407 15.3699 13.5838 15.3964L13.4774 15.3999H3.54675C3.18883 15.4 2.8441 15.2666 2.58166 15.0265C2.31922 14.7863 2.15847 14.4571 2.13163 14.1049L2.12808 13.9999V13.2999C2.12813 12.398 2.481 11.5309 3.1131 10.8795C3.7452 10.228 4.60773 9.84255 5.52082 9.8034L5.67475 9.7999H11.3494ZM8.51208 1.3999C9.45271 1.3999 10.3548 1.76865 11.02 2.42503C11.6851 3.08141 12.0587 3.97164 12.0587 4.8999C12.0587 5.82816 11.6851 6.7184 11.02 7.37478C10.3548 8.03115 9.45271 8.3999 8.51208 8.3999C7.57144 8.3999 6.66934 8.03115 6.00421 7.37478C5.33908 6.7184 4.96541 5.82816 4.96541 4.8999C4.96541 3.97164 5.33908 3.08141 6.00421 2.42503C6.66934 1.76865 7.57144 1.3999 8.51208 1.3999Z" fill="#E6E6E6"/>
</g>
</svg>
