<svg preserveAspectRatio="none" overflow="visible" style="display: block;" width="24" height="24" viewBox="0 0 24 24" fill="none" xmlns="http://www.w3.org/2000/svg">
<g id="walk_fill">
<g id="Vector">
</g>
<path id="Vector_2" d="M12 2C12.7202 1.99943 13.4166 2.25799 13.962 2.72845C14.5073 3.1989 14.8652 3.84984 14.9703 4.56237C15.0753 5.27489 14.9206 6.00143 14.5342 6.60927C14.1479 7.2171 13.5557 7.66566 12.866 7.873L12.696 7.919L15.123 10.694L16.947 11.605C17.1776 11.7176 17.3561 11.9147 17.4455 12.1553C17.5349 12.3959 17.5284 12.6616 17.4273 12.8975C17.3262 13.1335 17.1382 13.3215 16.9023 13.4226C16.6664 13.5238 16.4006 13.5304 16.16 13.441L16.053 13.394L14.229 12.482C14.055 12.3951 13.8947 12.2832 13.753 12.15L13.618 12.01L12.6 10.847L11.94 13.485C11.8804 13.725 11.7766 13.9519 11.634 14.154L11.524 14.296L13.452 16.059C13.7002 16.2856 13.8873 16.571 13.996 16.889L14.043 17.049L14.781 20H15C15.2549 20.0003 15.5 20.0979 15.6854 20.2728C15.8707 20.4478 15.9822 20.687 15.9972 20.9414C16.0121 21.1958 15.9293 21.4464 15.7657 21.6418C15.6021 21.8373 15.3701 21.9629 15.117 21.993L15 22H14.078C13.854 22 13.6354 21.9316 13.4514 21.804C13.2673 21.6764 13.1266 21.4957 13.048 21.286L13.011 21.166L12.103 17.535L9.093 14.783C8.71499 14.5905 8.40793 14.2829 8.21614 13.9045C8.02436 13.5262 7.95777 13.0967 8.026 12.678L8.06 12.515L8.573 10.463L8.25 10.693L6.857 13.015C6.72583 13.234 6.51586 13.3946 6.27013 13.4637C6.0244 13.5329 5.76151 13.5055 5.53534 13.3871C5.30917 13.2687 5.13684 13.0683 5.05367 12.827C4.97049 12.5856 4.98278 12.3216 5.088 12.089L5.142 11.985L6.535 9.664C6.64775 9.47593 6.79065 9.30769 6.958 9.166L7.088 9.066L9.85 7.091C9.43904 6.6682 9.16177 6.13368 9.05285 5.55422C8.94393 4.97475 9.00817 4.37603 9.23756 3.83287C9.46694 3.2897 9.8513 2.82618 10.3426 2.5002C10.8339 2.17422 11.4104 2.00024 12 2ZM9.316 15.551C9.44064 15.5925 9.55589 15.6581 9.65517 15.7441C9.75444 15.8301 9.83579 15.9349 9.89458 16.0524C9.95336 16.1698 9.98842 16.2977 9.99776 16.4288C10.0071 16.5598 9.99053 16.6914 9.949 16.816L9.523 18.092C9.42489 18.3866 9.25953 18.6544 9.04 18.874L7.383 20.531C7.49506 20.7425 7.52752 20.9872 7.47449 21.2207C7.42145 21.4541 7.28644 21.6608 7.09398 21.8031C6.90153 21.9455 6.66439 22.014 6.42566 21.9964C6.18693 21.9788 5.96245 21.8761 5.793 21.707L5.3 21.214C5.1107 21.0246 5.00436 20.7678 5.00436 20.5C5.00436 20.2322 5.1107 19.9754 5.3 19.786L7.626 17.46L8.051 16.184C8.09247 16.0594 8.15809 15.9441 8.24412 15.8448C8.33014 15.7456 8.43488 15.6642 8.55236 15.6054C8.66983 15.5466 8.79774 15.5116 8.92877 15.5022C9.05979 15.4929 9.19138 15.5095 9.316 15.551Z" fill="white"/>
</g>
</svg>
