<svg preserveAspectRatio="none" overflow="visible" style="display: block;" width="24" height="24" viewBox="0 0 24 24" fill="none" xmlns="http://www.w3.org/2000/svg">
<g id="stopwatch_fill">
<g id="Vector">
</g>
<path id="Vector_2" d="M12 2C12.937 2 13.85 2.108 14.726 2.311C14.8557 2.33894 14.9785 2.39241 15.0873 2.46827C15.1961 2.54414 15.2887 2.6409 15.3598 2.75291C15.4308 2.86492 15.4789 2.98995 15.5012 3.12072C15.5234 3.25149 15.5194 3.38537 15.4895 3.51459C15.4595 3.6438 15.4041 3.76576 15.3265 3.87336C15.2489 3.98096 15.1507 4.07205 15.0376 4.14133C14.9245 4.21061 14.7987 4.25669 14.6676 4.27689C14.5365 4.2971 14.4027 4.29101 14.274 4.259C13.7809 4.14443 13.2798 4.06754 12.775 4.029L12.355 4.006L12.695 4.026C14.1416 4.13577 15.5397 4.59565 16.769 5.366L17.042 5.544L17.648 4.938C17.8275 4.75675 18.0696 4.65097 18.3245 4.64232C18.5795 4.63367 18.8282 4.7228 19.0196 4.89147C19.211 5.06013 19.3307 5.29558 19.3542 5.54962C19.3777 5.80366 19.3032 6.05708 19.146 6.258L19.063 6.352L18.568 6.847C19.9675 8.34073 20.816 10.2669 20.9736 12.3077C21.1311 14.3486 20.5883 16.3822 19.4346 18.073C18.2809 19.7638 16.5853 21.0108 14.6276 21.6084C12.6698 22.2059 10.5669 22.1183 8.66565 21.3599C6.76443 20.6015 5.17852 19.2176 4.16956 17.4367C3.16061 15.6557 2.78888 13.584 3.11572 11.5634C3.44256 9.54272 4.44842 7.69385 5.96738 6.32176C7.48634 4.94968 9.42763 4.13637 11.471 4.016L11.67 4.006L11.61 4.007C11.093 4.027 10.587 4.087 10.094 4.181L9.726 4.259C9.4694 4.3143 9.20135 4.26648 8.97969 4.12588C8.75804 3.98528 8.60055 3.76316 8.54122 3.50747C8.48189 3.25177 8.52547 2.983 8.66257 2.75916C8.79966 2.53531 9.01927 2.37435 9.274 2.311C10.15 2.108 11.064 2 12 2ZM12 8C11.7348 8 11.4804 8.10536 11.2929 8.29289C11.1054 8.48043 11 8.73478 11 9V13C11 13.2652 11.1054 13.5196 11.2929 13.7071C11.4804 13.8946 11.7348 14 12 14C12.2652 14 12.5196 13.8946 12.7071 13.7071C12.8946 13.5196 13 13.2652 13 13V9C13 8.73478 12.8946 8.48043 12.7071 8.29289C12.5196 8.10536 12.2652 8 12 8Z" fill="white"/>
</g>
</svg>
